# xmcd
#
# Track frame offsets:
# 183
# 19280
# 30118
# 40143
# 51030
# 59530
# 69755
# 79930
# 95368
# 105355
# 119493
# 131493
# 142218
# 153555
# 162543
# 175818
#
# Disc length: 2474 seconds
#
# Revision: 0
# Processed by: cddbd v1.4PL0 Copyright (c) Steve Scherf et al.
# Submitted via: Audion 3.0.2 (http://www.panic.com/audion/)
#
DISCID=d309a810
DTITLE=Johnny Hallyday - Tes Tendres Années
DYEAR=1900
DGENRE=
TTITLE0=Viens Danser Le Twist
TTITLE1=Hey ! Baby !
TTITLE2=Souvenirs Souvenirs
TTITLE3=Tes Tendres Années
TTITLE4=Ma Guitare
TTITLE5=Pour Moi La Vie Va Commencer
TTITLE6=Les Bras En Croix
TTITLE7=Bien Trop Timide
TTITLE8=Je Cherche Une Fille
TTITLE9=Excuse-Moi Partenaire
TTITLE10=Je Veux Me Promener
TTITLE11=Quand Un Air Vous Possède
TTITLE12=L'Idole Des Jeunes
TTITLE13=Elle Est Terrible
TTITLE14=Retiens La Nuit
TTITLE15=Da Dou Ron Ron
EXTD=
EXTT0=
EXTT1=
EXTT2=
EXTT3=
EXTT4=
EXTT5=
EXTT6=
EXTT7=
EXTT8=
EXTT9=
EXTT10=
EXTT11=
EXTT12=
EXTT13=
EXTT14=
EXTT15=
PLAYORDER=
